<svg width="124" height="99" viewBox="0 0 124 99" fill="none" xmlns="http://www.w3.org/2000/svg">
<path d="M44.8327 49.2906C46.046 49.279 47.0533 49.6894 47.8546 50.5217C48.6555 51.3074 49.0618 52.3069 49.0734 53.5202L49.2155 68.3595C49.2311 69.9928 48.5199 71.2596 47.0818 72.1601C42.5359 75.0504 37.5331 76.5217 32.0733 76.574C27.4535 76.6182 23.173 75.5392 19.2317 73.3368C15.29 71.0878 12.1576 68.061 9.83438 64.2564C7.51073 60.4051 6.32702 56.1929 6.28323 51.6198C6.23944 47.0467 7.34251 42.8359 9.59244 38.9875C11.8419 35.0925 14.9158 32.0062 18.8142 29.7288C22.7121 27.4047 26.971 26.2206 31.5908 26.1763C36.2106 26.1321 40.2327 27.027 43.657 28.8609C44.3606 29.2275 44.8786 29.7126 45.2111 30.3161C45.5902 30.9192 45.7831 31.5707 45.7898 32.2707C45.801 33.4373 45.4141 34.4677 44.6293 35.3619C43.8907 36.209 42.9615 36.6379 41.8415 36.6487C41.1416 36.6554 40.3698 36.4761 39.5263 36.1108C36.9961 35.0616 34.3778 34.55 31.6712 34.5759C28.6847 34.6045 25.9388 35.4009 23.4337 36.9649C20.9281 38.4823 18.941 40.5314 17.4723 43.1123C16.0503 45.6927 15.3538 48.4995 15.3828 51.5327C15.4119 54.5659 16.162 57.3588 17.6331 59.9115C19.151 62.4638 21.1772 64.4978 23.7118 66.0136C26.246 67.4827 29.0064 68.203 31.9929 68.1744C33.2995 68.1619 34.6983 68.0318 36.1894 67.7842C37.6804 67.5366 38.9841 67.2207 40.1005 66.8367L40.0133 57.7371L33.4336 57.8001C32.2204 57.8117 31.19 57.4249 30.3424 56.6397C29.5415 55.854 29.1352 54.8545 29.1236 53.6412C29.112 52.4279 29.4991 51.4208 30.2848 50.6199C31.1171 49.8186 32.1399 49.4121 33.3532 49.4005L44.8327 49.2906Z" fill="#0E263A"/>
<path d="M73.5653 49.4255C74.3986 49.4175 75.1181 49.7106 75.7238 50.3049C76.3626 50.8655 76.6861 51.5791 76.6944 52.4457L76.9715 81.3944C76.9798 82.261 76.7035 82.997 76.1426 83.6024C75.5814 84.1745 74.8342 84.465 73.9009 84.4739C72.9676 84.4828 72.1982 84.2069 71.5929 83.646C71.0208 83.0847 70.7304 82.3542 70.7218 81.4542L70.5289 61.3051L62.3999 73.9835C62.0704 74.3867 61.6903 74.7237 61.2595 74.9945C60.8285 75.232 60.3794 75.3363 59.9125 75.3074C59.4795 75.3449 59.0452 75.249 58.6097 75.0199C58.1738 74.7574 57.7873 74.4277 57.4501 74.0309L49.0756 61.0605L49.2728 81.6596C49.2814 82.5595 49.0218 83.2954 48.4939 83.8671C47.966 84.4389 47.2688 84.7289 46.4021 84.7372C45.5688 84.7452 44.8828 84.4684 44.3441 83.9069C43.805 83.312 43.5314 82.5812 43.5231 81.7146L43.2459 52.7659C43.2379 51.9326 43.531 51.2131 44.1253 50.6074C44.7528 50.0014 45.4999 49.6942 46.3666 49.6859C46.8665 49.6811 47.3678 49.8097 47.8703 50.0715C48.3725 50.3001 48.7589 50.6131 49.0294 51.0105L60.0892 67.6554L71.1283 50.7989C71.3912 50.3964 71.7381 50.0764 72.1692 49.8389C72.6333 49.5678 73.0987 49.43 73.5653 49.4255Z" fill="#0E263A"/>
<path d="M113.463 76.1647C114.63 76.1536 115.629 75.724 116.461 74.876C117.34 74.0742 117.774 73.0666 117.762 71.8534L117.374 31.3252C117.362 30.1119 116.956 29.0891 116.155 28.2568C115.354 27.4711 114.3 27.0845 112.993 27.097C111.687 27.1095 110.617 27.5164 109.785 28.3177C108.999 29.1186 108.612 30.1491 108.624 31.409L108.895 59.6177L97.1762 42.0891C96.7042 41.5336 96.1631 41.0721 95.5529 40.7046C94.9431 40.3837 94.3118 40.2498 93.6589 40.3027C93.0519 40.2618 92.4466 40.4076 91.843 40.7401C91.24 41.1192 90.7078 41.591 90.2465 42.1555L78.872 60.5352L78.5959 31.6965C78.5838 30.4366 78.2006 29.4135 77.4464 28.6274C76.6922 27.8412 75.7084 27.454 74.4952 27.4656C73.3285 27.4768 72.3757 27.8826 71.6367 28.683C70.8981 29.5301 70.5346 30.5603 70.5462 31.7736L70.9343 72.3017C70.9454 73.4683 71.375 74.4676 72.223 75.2995C73.1177 76.131 74.1717 76.5409 75.3849 76.5293C76.0849 76.5226 76.7831 76.3293 77.4795 75.9492C78.1763 75.6159 78.7087 75.1674 79.0767 74.6039L94.1115 51.0089L110.015 74.3077C110.394 74.8641 110.888 75.3027 111.498 75.6235C112.155 75.9906 112.81 76.171 113.463 76.1647Z" fill="#0E263A"/>
<path d="M41.785 44.3195C42.9982 44.3079 44.0056 44.7183 44.8069 45.5507C45.6078 46.3364 46.014 47.3358 46.0257 48.5491L46.1677 63.3884C46.1834 65.0217 45.4721 66.2886 44.034 67.189C39.4882 70.0794 34.4854 71.5507 29.0256 71.6029C24.4058 71.6472 20.1253 70.5681 16.184 68.3657C12.2423 66.1167 9.10985 63.0899 6.78665 59.2853C4.463 55.434 3.27929 51.2218 3.2355 46.6487C3.19171 42.0756 4.29478 37.8648 6.54471 34.0165C8.79419 30.1214 11.8681 27.0352 15.7665 24.7577C19.6644 22.4336 23.9233 21.2495 28.5431 21.2052C33.1628 21.161 37.1849 22.0559 40.6093 23.8898C41.3129 24.2565 41.8309 24.7415 42.1633 25.345C42.5424 25.9481 42.7354 26.5996 42.7421 27.2996C42.7532 28.4662 42.3664 29.4966 41.5816 30.3908C40.843 31.2379 39.9137 31.6669 38.7938 31.6776C38.0938 31.6843 37.3221 31.505 36.4785 31.1397C33.9484 30.0906 31.33 29.5789 28.6235 29.6049C25.637 29.6335 22.8911 30.4298 20.386 31.9938C17.8804 33.5112 15.8933 35.5604 14.4246 38.1412C13.0025 40.7216 12.306 43.5284 12.3351 46.5616C12.3641 49.5948 13.1142 52.3877 14.5854 54.9404C16.1032 57.4927 18.1295 59.5267 20.6641 61.0425C23.1983 62.5116 25.9586 63.2319 28.9452 63.2033C30.2518 63.1908 31.6506 63.0608 33.1416 62.8131C34.6327 62.5655 35.9364 62.2497 37.0527 61.8656L36.9656 52.7661L30.3859 52.8291C29.1726 52.8407 28.1422 52.4539 27.2947 51.6686C26.4938 50.8829 26.0875 49.8834 26.0759 48.6701C26.0643 47.4569 26.4513 46.4498 27.237 45.6489C28.0694 44.8475 29.0922 44.4411 30.3055 44.4294L41.785 44.3195Z" fill="white"/>
<path d="M70.5176 44.4544C71.3509 44.4465 72.0704 44.7396 72.6761 45.3338C73.3148 45.8944 73.6383 46.608 73.6466 47.4746L73.9238 76.4233C73.9321 77.2899 73.6558 78.0259 73.0949 78.6313C72.5337 79.2034 71.7864 79.4939 70.8532 79.5028C69.9199 79.5118 69.1505 79.2358 68.5451 78.6749C67.9731 78.1137 67.6827 77.3831 67.6741 76.4831L67.4812 56.3341L59.3522 69.0125C59.0227 69.4156 58.6426 69.7526 58.2118 70.0234C57.7807 70.2609 57.3317 70.3652 56.8647 70.3363C56.4318 70.3738 55.9975 70.278 55.5619 70.0488C55.1261 69.7863 54.7396 69.4566 54.4024 69.0599L46.0278 56.0894L46.2251 76.6885C46.2337 77.5885 45.9741 78.3243 45.4462 78.8961C44.9183 79.4678 44.221 79.7578 43.3544 79.7661C42.5211 79.7741 41.8351 79.4973 41.2964 78.9358C40.7573 78.3409 40.4836 77.6102 40.4753 76.7435L40.1982 47.7949C40.1902 46.9616 40.4833 46.2421 41.0775 45.6364C41.7051 45.0303 42.4522 44.7232 43.3188 44.7149C43.8188 44.7101 44.3201 44.8386 44.8226 45.1005C45.3248 45.329 45.7111 45.642 45.9816 46.0394L57.0415 62.6843L68.0806 45.8278C68.3434 45.4253 68.6904 45.1053 69.1215 44.8678C69.5856 44.5967 70.0509 44.4589 70.5176 44.4544Z" fill="white"/>
<path d="M110.415 71.1937C111.582 71.1825 112.581 70.7529 113.413 69.9049C114.292 69.1031 114.726 68.0956 114.714 66.8823L114.326 26.3542C114.315 25.1409 113.908 24.1181 113.107 23.2857C112.306 22.5 111.252 22.1134 109.946 22.1259C108.639 22.1384 107.57 22.5453 106.737 23.3467C105.952 24.1476 105.565 25.178 105.577 26.4379L105.847 54.6466L94.1285 37.118C93.6565 36.5625 93.1154 36.101 92.5051 35.7335C91.8954 35.4127 91.2641 35.2787 90.6112 35.3316C90.0041 35.2908 89.3988 35.4366 88.7953 35.769C88.1923 36.1482 87.6601 36.6199 87.1988 37.1844L75.8242 55.5641L75.5481 26.7254C75.5361 25.4655 75.1529 24.4425 74.3987 23.6563C73.6445 22.8702 72.6607 22.4829 71.4474 22.4945C70.2808 22.5057 69.328 22.9115 68.589 23.7119C67.8504 24.559 67.4869 25.5892 67.4985 26.8025L67.8865 67.3307C67.8977 68.4973 68.3273 69.4965 69.1753 70.3285C70.07 71.1599 71.1239 71.5699 72.3372 71.5582C73.0372 71.5515 73.7354 71.3582 74.4318 70.9782C75.1286 70.6448 75.661 70.1964 76.029 69.6328L91.0637 46.0378L106.968 69.3366C107.346 69.893 107.84 70.3316 108.45 70.6524C109.107 71.0195 109.762 71.1999 110.415 71.1937Z" fill="white"/>
</svg>
